{
  "accessors": [
    {
      "bufferView": 1,
      "componentType": 5126,
      "count": 10817,
      "max": [
        1.8289000988006592,
        0.77435129880905151,
        1.3838841915130615
      ],
      "min": [
        -1.5274759531021118,
        -0.68596756458282471,
        -0.99170529842376709
      ],
      "type": "VEC3"
    },
    {
      "bufferView": 1,
      "byteOffset": 129804,
      "componentType": 5126,
      "count": 10817,
      "max": [
        0.99785882234573364,
        0.9999997615814209,
        0.99865680932998657
      ],
      "min": [
        -0.99943763017654419,
        -0.99999958276748657,
        -0.99862885475158691
      ],
      "type": "VEC3"
    },
    {
      "bufferView": 2,
      "componentType": 5126,
      "count": 10817,
      "max": [
        0.95686274766921997,
        0.85882353782653809,
        0.7764706015586853,
        1
      ],
      "min": [
        0.86666667461395264,
        0.70980393886566162,
        0.50980395078659058,
        1
      ],
      "type": "VEC4"
    },
    {
      "bufferView": 0,
      "componentType": 5125,
      "count": 58314,
      "max": [
        10816
      ],
      "min": [
        0
      ],
      "type": "SCALAR"
    },
    {
      "bufferView": 1,
      "byteOffset": 259608,
      "componentType": 5126,
      "count": 6652,
      "max": [
        1.5692839622497559,
        0.80230230093002319,
        1.0704586505889893
      ],
      "min": [
        -1.7375552654266357,
        -0.7813873291015625,
        -0.80452018976211548
      ],
      "type": "VEC3"
    },
    {
      "bufferView": 1,
      "byteOffset": 339432,
      "componentType": 5126,
      "count": 6652,
      "max": [
        0.99914693832397461,
        0.99999982118606567,
        0.99624842405319214
      ],
      "min": [
        -0.99992841482162476,
        -0.99999964237213135,
        -0.99998044967651367
      ],
      "type": "VEC3"
    },
    {
      "bufferView": 2,
      "byteOffset": 173072,
      "componentType": 5126,
      "count": 6652,
      "max": [
        0.96470588445663452,
        0.85882353782653809,
        0.7764706015586853,
        1
      ],
      "min": [
        0.86666667461395264,
        0.7137255072593689,
        0.50980395078659058,
        1
      ],
      "type": "VEC4"
    },
    {
      "bufferView": 0,
      "byteOffset": 233256,
      "componentType": 5125,
      "count": 36495,
      "max": [
        6651
      ],
      "min": [
        0
      ],
      "type": "SCALAR"
    },
    {
      "bufferView": 1,
      "byteOffset": 419256,
      "componentType": 5126,
      "count": 8402,
      "max": [
        1.2897999286651611,
        0.73713016510009766,
        0.07353702187538147
      ],
      "min": [
        -0.99823921918869019,
        -1.1406954526901245,
        -1.1727912425994873
      ],
      "type": "VEC3"
    },
    {
      "bufferView": 1,
      "byteOffset": 520080,
      "componentType": 5126,
      "count": 8402,
      "max": [
        0.99947202205657959,
        0.99978858232498169,
        0.99964350461959839
      ],
      "min": [
        -0.99970388412475586,
        -0.99996662139892578,
        -0.99922269582748413
      ],
      "type": "VEC3"
    },
    {
      "bufferView": 2,
      "byteOffset": 279504,
      "componentType": 5126,
      "count": 8402,
      "max": [
        0.91372549533843994,
        0.78039216995239258,
        0.73333334922790527,
        1
      ],
      "min": [
        0.78039216995239258,
        0.60000002384185791,
        0.5215686559677124,
        1
      ],
      "type": "VEC4"
    },
    {
      "bufferView": 0,
      "byteOffset": 379236,
      "componentType": 5125,
      "count": 48522,
      "max": [
        8401
      ],
      "min": [
        0
      ],
      "type": "SCALAR"
    },
    {
      "bufferView": 1,
      "byteOffset": 620904,
      "componentType": 5126,
      "count": 21476,
      "max": [
        0.63818573951721191,
        0.4380163848400116,
        1.7765493392944336
      ],
      "min": [
        -0.82191950082778931,
        -0.91575664281845093,
        0.36890780925750732
      ],
      "type": "VEC3"
    },
    {
      "bufferView": 1,
      "byteOffset": 878616,
      "componentType": 5126,
      "count": 21476,
      "max": [
        0.9995349645614624,
        0.99999338388442993,
        0.99999833106994629
      ],
      "min": [
        -0.99988287687301636,
        -0.99999988079071045,
        -0.999977707862854
      ],
      "type": "VEC3"
    },
    {
      "bufferView": 2,
      "byteOffset": 413936,
      "componentType": 5126,
      "count": 21476,
      "max": [
        0.90196079015731812,
        0.81568628549575806,
        0.77254903316497803,
        1
      ],
      "min": [
        0.46666666865348816,
        0.35294118523597717,
        0.41960784792900085,
        1
      ],
      "type": "VEC4"
    },
    {
      "bufferView": 0,
      "byteOffset": 573324,
      "componentType": 5125,
      "count": 128832,
      "max": [
        21475
      ],
      "min": [
        0
      ],
      "type": "SCALAR"
    },
    {
      "bufferView": 1,
      "byteOffset": 1136328,
      "componentType": 5126,
      "count": 2815,
      "max": [
        0.97640120983123779,
        0.71130073070526123,
        0.7845005989074707
      ],
      "min": [
        -1.6436854600906372,
        -0.60375279188156128,
        -0.52320289611816406
      ],
      "type": "VEC3"
    },
    {
      "bufferView": 1,
      "byteOffset": 1170108,
      "componentType": 5126,
      "count": 2815,
      "max": [
        0.98748540878295898,
        0.99978142976760864,
        0.99999713897705078
      ],
      "min": [
        -0.99852150678634644,
        -0.99912208318710327,
        -0.99866288900375366
      ],
      "type": "VEC3"
    },
    {
      "bufferView": 2,
      "byteOffset": 757552,
      "componentType": 5126,
      "count": 2815,
      "max": [
        0.90980392694473267,
        0.74117648601531982,
        0.57254904508590698,
        1
      ],
      "min": [
        0.38431373238563538,
        0.29019609093666077,
        0.38823530077934265,
        1
      ],
      "type": "VEC4"
    },
    {
      "bufferView": 0,
      "byteOffset": 1088652,
      "componentType": 5125,
      "count": 14934,
      "max": [
        2814
      ],
      "min": [
        0
      ],
      "type": "SCALAR"
    },
    {
      "bufferView": 1,
      "byteOffset": 1203888,
      "componentType": 5126,
      "count": 17706,
      "max": [
        0.95998591184616089,
        0.69099718332290649,
        0.54753077030181885
      ],
      "min": [
        -0.94962513446807861,
        -0.69891500473022461,
        -1.0787186622619629
      ],
      "type": "VEC3"
    },
    {
      "bufferView": 1,
      "byteOffset": 1416360,
      "componentType": 5126,
      "count": 17706,
      "max": [
        0.99987149238586426,
        0.99996751546859741,
        0.96782392263412476
      ],
      "min": [
        -0.99991744756698608,
        -0.99997824430465698,
        -0.99999254941940308
      ],
      "type": "VEC3"
    },
    {
      "bufferView": 2,
      "byteOffset": 802592,
      "componentType": 5126,
      "count": 17706,
      "max": [
        0.89411765336990356,
        0.80392158031463623,
        0.7607843279838562,
        1
      ],
      "min": [
        0.78039216995239258,
        0.60000002384185791,
        0.52941179275512695,
        1
      ],
      "type": "VEC4"
    },
    {
      "bufferView": 0,
      "byteOffset": 1148388,
      "componentType": 5125,
      "count": 103965,
      "max": [
        17705
      ],
      "min": [
        0
      ],
      "type": "SCALAR"
    },
    {
      "bufferView": 1,
      "byteOffset": 1628832,
      "componentType": 5126,
      "count": 8038,
      "max": [
        0.70560014247894287,
        0.21871539950370789,
        2.2131764888763428
      ],
      "min": [
        -1.5626354217529297,
        -0.27681100368499756,
        -0.82914173603057861
      ],
      "type": "VEC3"
    },
    {
      "bufferView": 1,
      "byteOffset": 1725288,
      "componentType": 5126,
      "count": 8038,
      "max": [
        0.99985665082931519,
        0.99999982118606567,
        0.99955248832702637
      ],
      "min": [
        -0.99887180328369141,
        -0.99999964237213135,
        -0.99936866760253906
      ],
      "type": "VEC3"
    },
    {
      "bufferView": 2,
      "byteOffset": 1085888,
      "componentType": 5126,
      "count": 8038,
      "max": [
        0.92156863212585449,
        0.85882353782653809,
        0.7764706015586853,
        1
      ],
      "min": [
        0.78039216995239258,
        0.60000002384185791,
        0.52941179275512695,
        1
      ],
      "type": "VEC4"
    },
    {
      "bufferView": 0,
      "byteOffset": 1564248,
      "componentType": 5125,
      "count": 46476,
      "max": [
        8037
      ],
      "min": [
        0
      ],
      "type": "SCALAR"
    },
    {
      "bufferView": 1,
      "byteOffset": 1821744,
      "componentType": 5126,
      "count": 8774,
      "max": [
        1.4685959815979004,
        0.7790864109992981,
        1.9839382171630859
      ],
      "min": [
        -1.2822568416595459,
        -0.73532950878143311,
        -0.60551255941390991
      ],
      "type": "VEC3"
    },
    {
      "bufferView": 1,
      "byteOffset": 1927032,
      "componentType": 5126,
      "count": 8774,
      "max": [
        0.99883723258972168,
        0.99999040365219116,
        0.99819451570510864
      ],
      "min": [
        -0.99993634223937988,
        -0.99995309114456177,
        -0.99963045120239258
      ],
      "type": "VEC3"
    },
    {
      "bufferView": 2,
      "byteOffset": 1214496,
      "componentType": 5126,
      "count": 8774,
      "max": [
        0.96470588445663452,
        0.76470589637756348,
        0.73725491762161255,
        1
      ],
      "min": [
        0.78039216995239258,
        0.60000002384185791,
        0.51372551918029785,
        1
      ],
      "type": "VEC4"
    },
    {
      "bufferView": 0,
      "byteOffset": 1750152,
      "componentType": 5125,
      "count": 50010,
      "max": [
        8773
      ],
      "min": [
        0
      ],
      "type": "SCALAR"
    },
    {
      "bufferView": 1,
      "byteOffset": 2032320,
      "componentType": 5126,
      "count": 9476,
      "max": [
        1.3620891571044922,
        0.8111424446105957,
        0.9048459529876709
      ],
      "min": [
        -1.2520160675048828,
        -1.0612391233444214,
        -1.0383374691009521
      ],
      "type": "VEC3"
    },
    {
      "bufferView": 1,
      "byteOffset": 2146032,
      "componentType": 5126,
      "count": 9476,
      "max": [
        0.99979627132415771,
        0.99970006942749023,
        0.99996423721313477
      ],
      "min": [
        -0.99966239929199219,
        -0.99990737438201904,
        -0.99999982118606567
      ],
      "type": "VEC3"
    },
    {
      "bufferView": 2,
      "byteOffset": 1354880,
      "componentType": 5126,
      "count": 9476,
      "max": [
        0.96470588445663452,
        0.80392158031463623,
        0.7607843279838562,
        1
      ],
      "min": [
        0.38431373238563538,
        0.29019609093666077,
        0.38823530077934265,
        1
      ],
      "type": "VEC4"
    },
    {
      "bufferView": 0,
      "byteOffset": 1950192,
      "componentType": 5125,
      "count": 54339,
      "max": [
        9475
      ],
      "min": [
        0
      ],
      "type": "SCALAR"
    },
    {
      "bufferView": 1,
      "byteOffset": 2259744,
      "componentType": 5126,
      "count": 5889,
      "max": [
        0.43382871150970459,
        0.0079998103901743889,
        1.1304676532745361
      ],
      "min": [
        -1.5626354217529297,
        -0.93151134252548218,
        -0.82914173603057861
      ],
      "type": "VEC3"
    },
    {
      "bufferView": 1,
      "byteOffset": 2330412,
      "componentType": 5126,
      "count": 5889,
      "max": [
        0.9997246265411377,
        0.99999982118606567,
        0.99636846780776978
      ],
      "min": [
        -0.99262470006942749,
        -0.99999964237213135,
        -0.99869555234909058
      ],
      "type": "VEC3"
    },
    {
      "bufferView": 2,
      "byteOffset": 1506496,
      "componentType": 5126,
      "count": 5889,
      "max": [
        0.99607843160629272,
        0.99607843160629272,
        0.99607843160629272,
        1
      ],
      "min": [
        0.25098040699958801,
        0.18823529779911041,
        0.24705882370471954,
        1
      ],
      "type": "VEC4"
    },
    {
      "bufferView": 0,
      "byteOffset": 2167548,
      "componentType": 5125,
      "count": 32664,
      "max": [
        5888
      ],
      "min": [
        0
      ],
      "type": "SCALAR"
    }
  ],
  "asset": {
    "extras": {
      "author": "yanxuann (https://sketchfab.com/yanxuann)",
      "license": "CC-BY-4.0 (http://creativecommons.org/licenses/by/4.0/)",
      "source": "https://sketchfab.com/3d-models/cute-mouse-cf391c60a17a419e9ea5049952520303",
      "title": "Cute mouse"
    },
    "generator": "Sketchfab-8.55.0",
    "version": "2.0"
  },
  "bufferViews": [
    {
      "buffer": 0,
      "byteLength": 2298204,
      "byteOffset": 0,
      "name": "floatBufferViews",
      "target": 34963
    },
    {
      "buffer": 0,
      "byteLength": 2401080,
      "byteOffset": 2298204,
      "byteStride": 12,
      "name": "floatBufferViews",
      "target": 34962
    },
    {
      "buffer": 0,
      "byteLength": 1600720,
      "byteOffset": 4699284,
      "byteStride": 16,
      "name": "floatBufferViews",
      "target": 34962
    }
  ],
  "buffers": [
    {
      "byteLength": 6300004,
      "uri": "scene.bin"
    }
  ],
  "materials": [
    {
      "doubleSided": true,
      "name": "material_0",
      "pbrMetallicRoughness": {
        "baseColorFactor": [
          1,
          1,
          1,
          1
        ],
        "metallicFactor": 0,
        "roughnessFactor": 0.69573643979999999
      }
    }
  ],
  "meshes": [
    {
      "primitives": [
        {
          "attributes": {
            "COLOR_0": 2,
            "NORMAL": 1,
            "POSITION": 0
          },
          "indices": 3,
          "material": 0,
          "mode": 4
        }
      ]
    },
    {
      "primitives": [
        {
          "attributes": {
            "COLOR_0": 6,
            "NORMAL": 5,
            "POSITION": 4
          },
          "indices": 7,
          "material": 0,
          "mode": 4
        }
      ]
    },
    {
      "primitives": [
        {
          "attributes": {
            "COLOR_0": 10,
            "NORMAL": 9,
            "POSITION": 8
          },
          "indices": 11,
          "material": 0,
          "mode": 4
        }
      ]
    },
    {
      "primitives": [
        {
          "attributes": {
            "COLOR_0": 14,
            "NORMAL": 13,
            "POSITION": 12
          },
          "indices": 15,
          "material": 0,
          "mode": 4
        }
      ]
    },
    {
      "primitives": [
        {
          "attributes": {
            "COLOR_0": 18,
            "NORMAL": 17,
            "POSITION": 16
          },
          "indices": 19,
          "material": 0,
          "mode": 4
        }
      ]
    },
    {
      "primitives": [
        {
          "attributes": {
            "COLOR_0": 22,
            "NORMAL": 21,
            "POSITION": 20
          },
          "indices": 23,
          "material": 0,
          "mode": 4
        }
      ]
    },
    {
      "primitives": [
        {
          "attributes": {
            "COLOR_0": 26,
            "NORMAL": 25,
            "POSITION": 24
          },
          "indices": 27,
          "material": 0,
          "mode": 4
        }
      ]
    },
    {
      "primitives": [
        {
          "attributes": {
            "COLOR_0": 30,
            "NORMAL": 29,
            "POSITION": 28
          },
          "indices": 31,
          "material": 0,
          "mode": 4
        }
      ]
    },
    {
      "primitives": [
        {
          "attributes": {
            "COLOR_0": 34,
            "NORMAL": 33,
            "POSITION": 32
          },
          "indices": 35,
          "material": 0,
          "mode": 4
        }
      ]
    },
    {
      "primitives": [
        {
          "attributes": {
            "COLOR_0": 38,
            "NORMAL": 37,
            "POSITION": 36
          },
          "indices": 39,
          "material": 0,
          "mode": 4
        }
      ]
    }
  ],
  "nodes": [
    {
      "children": [
        1
      ],
      "name": "RootNode (gltf orientation matrix)",
      "rotation": [
        -0.70710678118654746,
        -0,
        -0,
        0.70710678118654757
      ]
    },
    {
      "children": [
        2
      ],
      "name": "RootNode (model correction matrix)"
    },
    {
      "children": [
        3,
        4,
        5,
        6,
        7,
        8,
        9,
        10,
        11,
        12
      ],
      "name": "mouse.OBJ.cleaner.materialmerger.gles"
    },
    {
      "mesh": 0,
      "name": ""
    },
    {
      "mesh": 1,
      "name": ""
    },
    {
      "mesh": 2,
      "name": ""
    },
    {
      "mesh": 3,
      "name": ""
    },
    {
      "mesh": 4,
      "name": ""
    },
    {
      "mesh": 5,
      "name": ""
    },
    {
      "mesh": 6,
      "name": ""
    },
    {
      "mesh": 7,
      "name": ""
    },
    {
      "mesh": 8,
      "name": ""
    },
    {
      "mesh": 9,
      "name": ""
    }
  ],
  "scene": 0,
  "scenes": [
    {
      "name": "OSG_Scene",
      "nodes": [
        0
      ]
    }
  ]
}

